<svg xmlns="http://www.w3.org/2000/svg" viewBox="0 0 48 48">
  <linearGradient id="a" x1="9.816" x2="41.246" y1="9.871" y2="41.301" gradientUnits="userSpaceOnUse">
    <stop offset="0" stop-color="#f44f5a"/>
    <stop offset=".443" stop-color="#ee3d4a"/>
    <stop offset="1" stop-color="#e52030"/>
  </linearGradient>
  <path fill="url(#a)" d="M45.012 34.56c-.439 2.24-2.304 3.947-4.608 4.267C36.783 39.36 30.748 40 23.945 40c-6.693 0-12.728-.64-16.459-1.173-2.304-.32-4.17-2.027-4.608-4.267C2.439 32.107 2 28.48 2 24s.439-8.107.878-10.56c.439-2.24 2.304-3.947 4.608-4.267C11.107 8.64 17.142 8 23.945 8s12.728.64 16.459 1.173c2.304.32 4.17 2.027 4.608 4.267.439 2.453.988 6.08.988 10.56-.11 4.48-.549 8.107-.988 10.56z"/>
  <path d="m32.352 22.44-11.436-7.624c-.577-.385-1.314-.421-1.925-.093-.611.327-.991.96-.991 1.653v15.248c0 .693.38 1.327.991 1.654.278.149.581.222.884.222.364 0 .726-.106 1.04-.315l11.436-7.624c.523-.349.835-.932.835-1.56.001-.629-.312-1.212-.834-1.561z" opacity=".05"/>
  <path d="m20.681 15.237 10.79 7.194c.689.495 1.153.938 1.153 1.513s-.224.976-.715 1.334c-.371.27-11.045 7.364-11.045 7.364-.901.604-2.364.476-2.364-1.499V16.744c0-2.005 1.584-1.905 2.181-1.507z" opacity=".07"/>
  <path fill="#fff" d="M19 31.568V16.433c0-.743.828-1.187 1.447-.774l11.352 7.568c.553.368.553 1.18 0 1.549l-11.352 7.568c-.619.411-1.447-.032-1.447-.776z"/>
</svg>
